<?xml version="1.0" encoding="utf-8"?>
<!-- Generator: Adobe Illustrator 26.5.0, SVG Export Plug-In . SVG Version: 6.00 Build 0)  -->
<svg version="1.1" id="레이어_1" xmlns="http://www.w3.org/2000/svg" xmlns:xlink="http://www.w3.org/1999/xlink" x="0px"
	 y="0px" viewBox="0 0 182.6 140.3" style="enable-background:new 0 0 182.6 140.3;" xml:space="preserve">
<style type="text/css">
	.st0{opacity:0.3;}
	.st1{fill:#FFFFFF;}
</style>
<g id="ico_qm1" transform="translate(-625.435 -249.565)" class="st0">
	<path id="패스_3" class="st1" d="M630.3,315c-1.9,0-3.4-1.6-3.4-3.7c0-1.3,0.6-2.5,1.7-3.2c23.2-14.7,50.9-0.8,52-0.2
		c1.7,0.9,2.4,3.1,1.6,4.9c-0.8,1.8-2.9,2.6-4.6,1.7l0,0c-0.3-0.1-25.5-12.8-45.5-0.2C631.6,314.8,630.9,315,630.3,315z"/>
	<path id="패스_4" class="st1" d="M630.3,332.7c-1.9,0-3.4-1.6-3.4-3.7c0-1.3,0.6-2.5,1.7-3.2c23.2-14.7,50.9-0.7,52-0.1
		c1.7,0.9,2.4,3.1,1.5,4.9c-0.8,1.8-2.8,2.5-4.5,1.7c-0.3-0.1-25.5-12.8-45.5-0.1C631.6,332.5,630.9,332.7,630.3,332.7z"/>
	<path id="패스_5" class="st1" d="M630.3,350.3c-1.9,0-3.4-1.6-3.4-3.7c0-1.3,0.6-2.5,1.7-3.2c23.2-14.7,50.9-0.7,52-0.1
		c1.7,0.9,2.4,3.1,1.5,4.9c-0.8,1.8-2.8,2.5-4.5,1.7c-0.3-0.1-25.5-12.8-45.5-0.1C631.6,350.2,630.9,350.3,630.3,350.3z"/>
	<path id="패스_6" class="st1" d="M630.3,368c-1.9,0-3.4-1.6-3.4-3.7c0-1.3,0.6-2.5,1.7-3.2c23.2-14.7,50.9-0.8,52-0.1
		c1.7,0.9,2.4,3.1,1.5,4.9c-0.8,1.8-2.8,2.5-4.5,1.7c-0.3-0.1-25.5-12.8-45.5-0.1C631.6,367.9,630.9,368,630.3,368z"/>
	<path class="st1" d="M785,289.7c-7.8-2.4-15.7-4.3-23.8-5.5v-34.7c-45,5.3-59.6,29.6-63.7,39.2c-0.6,0.2-1.1,0.4-1.6,0.5
		c-29.2-8.9-54.5-7.3-70.5-4.4v7c16.4-2.6,45.3-5,66.5,5.4c0.5,0.2,0.8,0.7,0.9,1.3l0,81.8c-0.1,0.9-0.9,1.5-1.7,1.5
		c-0.1,0-0.3,0-0.4-0.1c-8.3-2.3-39.3-9.9-65.2-3.8v6.9c30.3-5.4,69.2,4.7,69.6,4.8h0c0.3,0.1,0.7,0.1,1,0.1c0.2,0,0.4,0,0.5-0.1
		c0.1,0,0.1,0,0.2,0c0.3-0.1,0.7-0.2,1-0.3c30.4-13.9,84.4,0.1,84.9,0.2c1.1,0.3,2.3,0.1,3.2-0.5c0.9-0.6,1.5-1.5,1.5-2.6v-93.9
		C787.4,291.3,786.4,290.1,785,289.7z M780.1,382.4c-8.5-1.9-27.2-5.5-46.9-5.5c-7.1,0-14.2,0.5-21.1,1.7
		c10-16.2,49.2-31.4,49.2-31.4v-56.3c6.4,1,12.7,2.4,18.8,4.2V382.4z"/>
</g>
</svg>
