<?xml version="1.0" encoding="utf-8"?>
<!-- Generator: Adobe Illustrator 26.5.0, SVG Export Plug-In . SVG Version: 6.00 Build 0)  -->
<svg version="1.1" id="레이어_1" xmlns="http://www.w3.org/2000/svg" xmlns:xlink="http://www.w3.org/1999/xlink" x="0px"
	 y="0px" viewBox="0 0 184 154.9" style="enable-background:new 0 0 184 154.9;" xml:space="preserve">
<style type="text/css">
	.st0{opacity:0.3;}
	.st1{fill:#FFFFFF;}
</style>
<g id="ico_qm3" transform="translate(-569.63 -473.587)" class="st0">
	<path id="패스_20" class="st1" d="M683.8,576.5c-3-3-7.6-4-11.5-2.4l-2.4-7.2c11.2-20.5,3.6-46.1-16.8-57.3
		c-20.5-11.2-46.1-3.6-57.3,16.8c-11.2,20.5-3.6,46.1,16.8,57.3c14.1,7.7,31.3,6.7,44.4-2.5l6.5,2.5c-1,3.7,0.1,7.6,2.8,10.3
		l25.8,25.8c4.2,4.2,11,4.2,15.2,0c0,0,0,0,0,0l2.3-2.3c4.2-4.2,4.2-11,0-15.2c0,0,0,0,0,0L683.8,576.5z M632.9,577.8
		c-17.1,0-30.9-13.8-30.9-30.9S615.9,516,633,516c17.1,0,30.9,13.8,30.9,30.9C663.8,563.9,650,577.8,632.9,577.8L632.9,577.8z"/>
	<g>
		<path class="st1" d="M686.1,482.5H569.6v11.1h116.5c9.6,0,17.5,7.8,17.5,17.5v70.9c0,1.9-0.4,3.8-1,5.6l8.4,8.4
			c2.4-4.3,3.7-9.1,3.7-14V511C714.6,495.3,701.9,482.5,686.1,482.5z"/>
		<path class="st1" d="M607.8,622.4h-26.5v4.4c0,0.6,0.1,1.2,0.1,1.8h95.9c0.1-0.6,0.1-1.2,0.1-1.8v-4.4h-26.8l-0.2-12h27
			l-11.1-11.1h-96.9v11.1h38.2V622.4z"/>
	</g>
</g>
</svg>
