<?xml version="1.0" encoding="utf-8"?>
<!-- Generator: Adobe Illustrator 26.5.0, SVG Export Plug-In . SVG Version: 6.00 Build 0)  -->
<svg version="1.1" id="레이어_1" xmlns="http://www.w3.org/2000/svg" xmlns:xlink="http://www.w3.org/1999/xlink" x="0px"
	 y="0px" viewBox="0 0 154.9 154.9" style="enable-background:new 0 0 154.9 154.9;" xml:space="preserve">
<style type="text/css">
	.st0{opacity:0.3;}
	.st1{fill:#FFFFFF;}
</style>
<g id="ico_qm4" transform="translate(-571.88 -360.957)" class="st0">
	<g id="그룹_19" transform="translate(621.346 384.589)">
		<path id="패스_23" class="st1" d="M-24.6,39.2c-0.4-2.3-0.5-4.6-0.5-6.9c0-2.4,0.5-4.7,1.3-6.9c1-2.9,2.6-5.6,4.8-7.8
			c2.2-2.2,4.7-4,7.5-5.4c2.9-1.4,6-2.4,9.2-2.9c3.1-0.6,6.2-0.7,9.2-0.3c3,0.3,6,1.1,8.9,2.3c3,1.2,5.7,2.9,8.1,5
			c2.6,2.2,4.7,5,6.1,8.2c1.4,3,2.1,6.3,2.2,9.6c0.1,3.3-0.3,6.7-1.2,9.9c-0.9,3.2-2.3,6.3-4.2,9.1l-0.1,0.3c-1.5,2-3.2,3.8-5.2,5.4
			c-1.9,1.6-3.7,3.3-5.4,5.2c-1.7,1.6-2.9,3.7-3.4,6.1c-0.4,2-0.7,4.3-1.1,6.9c-0.2,2.2-0.9,4.4-1.9,6.3c-1,1.8-2.9,2.6-5.6,2.5
			c-1.6,0-3.1-0.6-4.2-1.8c-1-1.1-1.6-2.5-2-3.9c-0.4-1.6-0.6-3.2-0.5-4.8c0.1-1.7,0.2-3.2,0.4-4.5c0.5-3,1.5-6,2.9-8.7
			C2.3,59.1,4,56.5,6,54.1c1.1-1.3,2.3-2.5,3.4-3.6c1.1-1.1,2.2-2.2,3.2-3.5c1-1.2,1.8-2.5,2.5-3.9c0.7-1.5,1.2-3.2,1.5-4.8
			c0.3-1.7,0.1-3.4-0.4-5c-0.5-1.7-1.3-3.2-2.4-4.6c-1.1-1.4-2.4-2.5-3.8-3.4c-1.5-0.9-3.2-1.4-4.9-1.5c-1.7-0.1-3.4,0.1-5,0.6
			c-1.7,0.5-3.4,1.2-4.9,2.2c-1.4,0.9-2.7,2.2-3.6,3.6c-0.9,1.4-1.4,3-1.3,4.7c0.1,1.1,0.3,2.2,0.6,3.2c0.3,1,0.5,2.1,0.7,3.1
			c0.1,1,0.1,2-0.1,2.9c-0.3,1.1-0.9,2-1.8,2.7c-1.2,1.3-2.9,2.1-4.8,2.2c-1.6,0-3.1-0.6-4.4-1.5c-1.4-1-2.5-2.3-3.4-3.7
			C-23.7,42.4-24.3,40.8-24.6,39.2z M13.4,104.3c0,2.6-1.1,5-2.9,6.8C8.9,113,6.5,114,4,114c-2.4,0-4.7-1.1-6.3-2.9
			c-1.7-1.8-2.7-4.3-2.8-6.8c-0.1-2.5,0.9-5,2.8-6.8c1.6-1.9,3.9-3,6.3-3c2.5,0,4.9,1.1,6.5,3C12.4,99.3,13.4,101.8,13.4,104.3
			L13.4,104.3z"/>
	</g>
	<path class="st1" d="M660.3,515.6c24.6-13,41.4-38.8,41.4-68.5c0-42.8-34.7-77.5-77.5-77.5c-20,0-38.2,7.6-52,20v14
		c12.4-14.8,31.1-24.3,52-24.3v0c37.4,0,67.7,30.3,67.8,67.8c0,0,0,0,0,0c0,37.4-30.3,67.8-67.8,67.8c-20.9,0-39.5-9.4-52-24.3v14
		c4.8,4.3,10.1,8.1,15.9,11.1H660.3z"/>
</g>
</svg>
