<?xml version="1.0" encoding="utf-8"?>
<!-- Generator: Adobe Illustrator 26.5.0, SVG Export Plug-In . SVG Version: 6.00 Build 0)  -->
<svg version="1.1" id="레이어_1" xmlns="http://www.w3.org/2000/svg" xmlns:xlink="http://www.w3.org/1999/xlink" x="0px"
	 y="0px" viewBox="0 0 157.9 154.9" style="enable-background:new 0 0 157.9 154.9;" xml:space="preserve">
<style type="text/css">
	.st0{opacity:0.3;}
	.st1{fill:#FFFFFF;}
</style>
<g id="ico_qm2" transform="translate(-573.348 -413.261)" class="st0">
	<path id="패스_8" class="st1" d="M657.9,551.8h-32.3c-2.8,0-5.1-2.2-5.1-5v-8.6c-0.1-2.6-1.3-5-3.3-6.6
		c-9.3-8-14.6-19.6-14.5-31.9c0-22.8,17.9-41.3,39.8-41.3s39.8,18.5,39.8,41.3c0,13.1-6.1,25.5-16.5,33.5c-1.7,1.2-2.7,3.1-2.8,5.2
		v8.3C663,549.6,660.7,551.8,657.9,551.8z M626.7,545.7h30.2v-7.2c0-4,2-7.8,5.3-10.1c8.9-6.8,14.1-17.4,14.1-28.6
		c0-19.4-15.1-35.2-33.7-35.2s-33.7,15.8-33.7,35.2c-0.1,10.4,4.5,20.4,12.4,27.2c3.4,2.8,5.3,6.9,5.4,11.2L626.7,545.7z"/>
	<path id="패스_9" class="st1" d="M618,496.9c-0.4,0-0.8-0.1-1.1-0.2c-1.6-0.6-2.4-2.4-1.7-4c0.3-0.7,6.8-17,22.7-20.8
		c1.6-0.4,3.3,0.6,3.7,2.3c0.4,1.6-0.6,3.3-2.3,3.7l0,0c-12.8,3-18.4,16.9-18.4,17C620.4,496.1,619.3,496.9,618,496.9z"/>
	<path id="패스_10" class="st1" d="M641.4,448.9c-2.5,0-4.6-2.1-4.6-4.6v-17.8c0-2.5,2.1-4.6,4.6-4.6c2.5,0,4.6,2.1,4.6,4.6v17.8
		C646,446.8,644,448.9,641.4,448.9C641.4,448.9,641.4,448.9,641.4,448.9z"/>
	<path id="패스_11" class="st1" d="M715.9,502.7h-20.8c-2.5,0-4.6-2.1-4.6-4.6c0-2.5,2.1-4.6,4.6-4.6h20.8c2.5,0,4.6,2.1,4.6,4.6
		C720.5,500.7,718.4,502.7,715.9,502.7z"/>
	<path id="패스_13" class="st1" d="M695.1,557c-1.2,0-2.4-0.5-3.3-1.3L677.1,541c-1.8-1.8-1.8-4.7,0-6.5c1.8-1.8,4.7-1.8,6.5,0
		l14.7,14.7c1.8,1.8,1.8,4.7,0,6.5C697.5,556.6,696.3,557,695.1,557L695.1,557z"/>
	<path id="패스_14" class="st1" d="M601.6,463.5c-1.2,0-2.4-0.5-3.3-1.3l-11.6-11.6c-1.8-1.8-1.8-4.7,0-6.5c1.8-1.8,4.7-1.8,6.5,0
		l11.6,11.6c1.8,1.8,1.8,4.7,0,6.5C604,463,602.8,463.5,601.6,463.5L601.6,463.5z"/>
	<path id="패스_15" class="st1" d="M681.1,463.7c-2.5,0-4.6-2.1-4.6-4.6c0-1.2,0.5-2.4,1.4-3.3l12.9-12.9c1.8-1.8,4.7-1.8,6.5,0
		c1.8,1.8,1.8,4.7,0,6.5l-12.9,12.9C683.5,463.2,682.3,463.7,681.1,463.7z"/>
	<path id="패스_16" class="st1" d="M588.9,555.9c-2.5,0-4.6-2.1-4.6-4.6c0-1.2,0.5-2.4,1.4-3.3l14.7-14.7c1.8-1.8,4.7-1.8,6.5,0
		c1.8,1.8,1.8,4.7,0,6.5l-14.7,14.7C591.2,555.5,590.1,555.9,588.9,555.9z"/>
	<path class="st1" d="M588,493.5h-14.5v9.2H588h0c2.5,0,4.6-2.1,4.6-4.6C592.6,495.6,590.5,493.5,588,493.5z"/>
	<rect x="623.2" y="559" class="st1" width="38.6" height="9.2"/>
</g>
</svg>
